<svg xmlns="http://www.w3.org/2000/svg" xmlns:xlink="http://www.w3.org/1999/xlink" viewBox="0 0 360 360" width="360" height="360" preserveAspectRatio="xMidYMid meet" style="width: 100%; height: 100%; transform: translate3d(0px, 0px, 0px); content-visibility: visible;"><defs><clipPath id="__lottie_element_19"><rect width="360" height="360" x="0" y="0"></rect></clipPath></defs><g clip-path="url(#__lottie_element_19)"><g transform="matrix(0.7071067690849304,0.7071067690849304,-0.7071067690849304,0.7071067690849304,49.51158142089844,27.269893646240234)" opacity="1" style="display: block;"><g opacity="1" transform="matrix(1,0,0,1,116.34400177001953,-70.06700134277344)"><path fill="rgb(17,17,17)" fill-opacity="1" d=" M29,-29 C29,-29 29,29 29,29 C29,29 -29,29 -29,29 C-29,29 -29,-29 -29,-29 C-29,-29 29,-29 29,-29z"></path></g></g><g transform="matrix(0.9848077297210693,0.1736481785774231,-0.1736481785774231,0.9848077297210693,167.29595947265625,163.76405334472656)" opacity="1" style="display: block;"><g opacity="1" transform="matrix(1,0,0,1,116.34400177001953,-70.06700134277344)"><path fill="rgb(17,17,17)" fill-opacity="1" d=" M29,-29 C29,-29 29,29 29,29 C29,29 -29,29 -29,29 C-29,29 -29,-29 -29,-29 C-29,-29 29,-29 29,-29z"></path></g></g><g transform="matrix(0.9848077297210693,-0.1736481785774231,0.1736481785774231,0.9848077297210693,192.2327880859375,333.0979919433594)" opacity="1" style="display: block;"><g opacity="1" transform="matrix(1,0,0,1,116.34400177001953,-70.06700134277344)"><path fill="rgb(17,17,17)" fill-opacity="1" d=" M29,-29 C29,-29 29,29 29,29 C29,29 -29,29 -29,29 C-29,29 -29,-29 -29,-29 C-29,-29 29,-29 29,-29z"></path></g></g><g transform="matrix(0.7071067690849304,-0.7071067690849304,0.7071067690849304,0.7071067690849304,148.51988220214844,429.76239013671875)" opacity="1" style="display: block;"><g opacity="1" transform="matrix(1,0,0,1,116.34400177001953,-70.06700134277344)"><path fill="rgb(17,17,17)" fill-opacity="1" d=" M29,-29 C29,-29 29,29 29,29 C29,29 -29,29 -29,29 C-29,29 -29,-29 -29,-29 C-29,-29 29,-29 29,-29z"></path></g></g><g transform="matrix(0.9848077297210693,0.1736481785774231,-0.1736481785774231,0.9848077297210693,-60.95402526855469,293.5140380859375)" opacity="1" style="display: block;"><g opacity="1" transform="matrix(1,0,0,1,116.34400177001953,-70.06700134277344)"><path fill="rgb(17,17,17)" fill-opacity="1" d=" M29,-29 C29,-29 29,29 29,29 C29,29 -29,29 -29,29 C-29,29 -29,-29 -29,-29 C-29,-29 29,-29 29,-29z"></path></g></g><g transform="matrix(0.9848077297210693,-0.1736481785774231,0.1736481785774231,0.9848077297210693,-36.0172119140625,203.59800720214844)" opacity="1" style="display: block;"><g opacity="1" transform="matrix(1,0,0,1,116.34400177001953,-70.06700134277344)"><path fill="rgb(15,37,97)" fill-opacity="1" d=" M29,-29 C29,-29 29,29 29,29 C29,29 -29,29 -29,29 C-29,29 -29,-29 -29,-29 C-29,-29 29,-29 29,-29z"></path></g></g></g></svg>