<svg width="100%" height="100%" viewBox="0 0 95 28" fill="none" xmlns="http://www.w3.org/2000/svg">
<path fill-rule="evenodd" clip-rule="evenodd" d="M28.7387 14.2244V12.0683H30.8273V7.9707H33.069V12.0562H38.3254V14.1942H33.0775V14.5994L33.0772 16.4901C33.0769 17.7508 33.0767 19.0116 33.0775 20.273C33.0775 21.1099 33.4573 21.4909 34.2882 21.4933C35.097 21.495 35.9058 21.4944 36.7143 21.4939H36.7146C37.1186 21.4936 37.5225 21.4933 37.9263 21.4933H38.3266V23.6289C38.3193 23.6344 38.3122 23.6409 38.3053 23.6472C38.2906 23.6608 38.2766 23.6736 38.2627 23.6736C37.7776 23.6736 37.2922 23.6784 36.8069 23.6833C35.6745 23.6947 34.5421 23.7061 33.4127 23.6555C31.7185 23.5783 30.8406 22.5063 30.8333 20.6649C30.8284 19.2929 30.8297 17.9215 30.831 16.5499L30.831 16.5493C30.8315 15.9259 30.8321 15.3025 30.8321 14.679V14.2256H28.7363L28.7387 14.2244ZM54.3442 23.6702H56.5618L56.5642 23.6714V23.2036L56.564 21.4685V21.4684V21.4682C56.5637 20.3119 56.5634 19.1557 56.5642 17.999C56.5655 17.0319 56.7403 16.1263 57.3312 15.3135C58.2187 14.0932 59.6247 13.6181 61.2129 14.0606C62.3717 14.3838 63.2701 15.6005 63.3015 17.0174C63.3338 18.4713 63.3373 19.9257 63.3408 21.3799C63.3423 21.9858 63.3437 22.5917 63.3473 23.1975V23.657H65.5793C65.5793 23.0995 65.5798 22.5443 65.5803 21.9909L65.5803 21.9824V21.9814V21.9804C65.5815 20.5405 65.5827 19.1118 65.5757 17.6831C65.5733 17.1368 65.5625 16.5857 65.4925 16.0455C65.3092 14.6178 64.7135 13.401 63.498 12.5726C61.4324 11.1653 58.4876 11.5476 56.809 13.4083C56.7641 13.4579 56.7116 13.5011 56.6401 13.5599L56.64 13.5599C56.6004 13.5925 56.5549 13.6299 56.5015 13.676V12.0951H54.3442V23.6702ZM74.985 11.8139C71.623 11.3014 68.7808 13.2199 68.0959 16.4083C67.3253 19.9969 69.2559 23.0828 72.3586 23.8087C75.8906 24.6347 78.7389 22.8175 79.5577 20.2622L79.5577 20.2621C79.5903 20.1777 79.6228 20.0933 79.6517 20.0066H77.3702C77.3063 20.1103 77.2376 20.2152 77.164 20.3177C77.1146 20.3683 77.07 20.4298 77.0302 20.4986C76.8421 20.7422 76.6286 20.9737 76.3947 21.169C74.8126 22.3098 72.2332 22.0421 71.0285 20.4913C70.621 19.9656 70.3388 19.3795 70.3352 18.65H79.864C80.2028 15.5328 78.4664 12.3457 74.985 11.8139ZM70.4208 16.6446C70.5293 15.3374 71.8727 14.017 73.5175 13.8844C75.6567 13.7119 77.1954 15.0902 77.4353 16.6446H70.4208ZM94.2407 17.8803C94.2069 21.4184 91.5576 24.0303 88.0244 24.0086C84.3284 23.9857 81.7358 21.381 81.7684 17.7296C81.7985 14.3266 84.3718 11.6954 88.098 11.7328C91.8386 11.7702 94.2359 14.4653 94.2395 17.8803H94.2407ZM88.0305 13.8756C85.7212 13.8588 84.0426 15.5132 84.0149 17.8345C83.9872 20.1269 85.6875 21.8465 88.0124 21.8742C90.2384 21.9019 91.9833 20.1775 92.0207 17.9141C92.0581 15.6157 90.3566 13.8937 88.0305 13.8756ZM40.0031 16.4131C40.688 13.2248 43.5303 11.3063 46.8922 11.8188C50.3736 12.3506 52.11 15.5377 51.7712 18.6549H42.2424C42.246 19.3844 42.5282 19.9705 42.9358 20.4962C44.1404 22.047 46.7198 22.3147 48.3019 21.1739C48.5358 20.9786 48.7493 20.747 48.9374 20.5035C48.9772 20.4347 49.0218 20.3732 49.0712 20.3226C49.1448 20.2201 49.2135 20.1152 49.2774 20.0115H51.559C51.53 20.0983 51.4975 20.1827 51.4649 20.2671L51.4649 20.2671C50.6461 22.8224 47.7978 24.6396 44.2658 23.8136C41.1631 23.0876 39.2325 20.0018 40.0031 16.4131ZM45.4247 13.8893C43.7799 14.0219 42.4365 15.3423 42.328 16.6495H49.3426C49.1026 15.0951 47.5639 13.7168 45.4247 13.8893Z" fill="currentColor"></path>
<path fill-rule="evenodd" clip-rule="evenodd" d="M8.08291 7.08585L11.1688 4L14.2546 7.08585L11.1688 10.1717L8.08291 7.08585ZM0.0706998 9.36222L4.36845 8.60441L5.12626 12.9022L0.828509 13.66L0.0706998 9.36222ZM0 22.6396L4.29775 23.3974L5.05556 19.0996L0.757809 18.3418L0 22.6396ZM21.4403 13.6601L17.1426 12.9023L17.9004 8.60451L22.1981 9.36232L21.4403 13.6601ZM21.4422 18.3407L17.1444 19.0985L17.9022 23.3963L22.2 22.6385L21.4422 18.3407ZM8.0834 24.914L11.1692 21.8281L14.2551 24.914L11.1692 27.9998L8.0834 24.914Z" fill="currentColor"></path>
</svg>